<?xml version="1.0" standalone="no"?>
<!DOCTYPE svg PUBLIC "-//W3C//DTD SVG 20010904//EN"
 "http://www.w3.org/TR/2001/REC-SVG-20010904/DTD/svg10.dtd">
<svg version="1.0" xmlns="http://www.w3.org/2000/svg"
 width="2019.000000pt" height="2019.000000pt" viewBox="0 0 2019.000000 2019.000000"
 preserveAspectRatio="xMidYMid meet">
<metadata>
Created by potrace 1.11, written by Peter Selinger 2001-2013
</metadata>
<g transform="translate(0.000000,2019.000000) scale(0.100000,-0.100000)"
fill="#000000" stroke="none">
<path d="M11239 19646 c-2 -2 -85 -6 -184 -10 -99 -3 -193 -8 -210 -10 -16 -3
-50 -7 -75 -10 -25 -3 -70 -10 -100 -16 -30 -6 -77 -13 -105 -15 -48 -5 -279
-30 -360 -40 -22 -2 -65 -7 -95 -10 -30 -3 -71 -8 -90 -10 -65 -9 -115 -15
-165 -20 -58 -6 -88 -10 -205 -25 -122 -16 -152 -20 -180 -25 -14 -3 -43 -7
-65 -11 -22 -3 -51 -7 -65 -10 -14 -2 -52 -9 -85 -14 -88 -15 -105 -18 -280
-55 -88 -19 -176 -39 -195 -45 -19 -6 -47 -12 -61 -15 -90 -16 -484 -108 -649
-151 -8 -2 -40 -10 -70 -18 -194 -49 -699 -210 -762 -242 -15 -8 -31 -15 -35
-15 -26 -4 -281 -114 -387 -166 -135 -67 -329 -185 -431 -261 -226 -168 -396
-391 -451 -589 -28 -100 -33 -145 -29 -258 7 -222 75 -388 282 -685 9 -14 40
-54 68 -90 64 -84 67 -87 111 -140 78 -96 110 -134 124 -148 8 -9 28 -32 43
-51 100 -126 444 -475 1000 -1015 l288 -279 -31 -25 c-44 -37 -70 -85 -138
-257 -33 -82 -84 -211 -115 -285 -174 -429 -220 -549 -222 -585 -5 -68 47
-137 115 -152 8 -2 68 -4 132 -5 94 0 115 -3 105 -13 -7 -7 -43 -48 -82 -91
-38 -42 -77 -85 -85 -93 -8 -9 -53 -59 -100 -111 -172 -193 -286 -325 -395
-455 -27 -33 -55 -64 -61 -70 -26 -24 -621 -760 -676 -836 -9 -13 -67 -89
-128 -169 -592 -770 -1241 -1753 -1627 -2460 -17 -30 -41 -75 -55 -100 -71
-128 -111 -204 -234 -452 -74 -148 -152 -309 -173 -356 -21 -48 -53 -118 -70
-155 -40 -86 -171 -396 -171 -403 0 -4 -6 -20 -14 -37 -17 -39 -28 -69 -31
-82 -2 -6 -12 -32 -24 -57 -11 -26 -21 -50 -21 -54 0 -4 -22 -68 -49 -143
-101 -281 -193 -588 -262 -876 -47 -198 -85 -405 -114 -610 -3 -22 -7 -49 -10
-60 -2 -11 -7 -58 -11 -105 -3 -47 -8 -87 -9 -90 -18 -30 -26 -646 -12 -825
11 -137 17 -198 23 -225 2 -14 6 -35 8 -47 3 -12 7 -46 10 -75 6 -52 10 -76
21 -128 3 -14 7 -34 9 -45 108 -525 310 -990 610 -1409 90 -126 143 -191 178
-220 18 -15 26 -24 18 -20 -8 4 -5 -3 8 -15 12 -12 22 -26 22 -31 0 -6 6 -9
12 -7 7 1 12 -4 11 -10 -2 -7 5 -13 14 -13 9 0 14 -3 10 -6 -3 -3 14 -26 39
-50 24 -25 44 -50 44 -56 0 -6 3 -8 6 -5 7 7 44 -30 44 -45 0 -4 4 -7 10 -5 5
1 51 -41 102 -93 51 -52 86 -86 78 -75 -14 18 -14 19 2 6 10 -7 18 -20 18 -29
0 -8 3 -12 6 -9 4 4 18 -6 32 -21 13 -15 21 -20 17 -12 -5 8 6 0 24 -19 17
-19 31 -31 31 -27 0 4 11 -3 25 -16 14 -13 39 -34 56 -48 17 -14 39 -34 50
-44 10 -11 19 -16 19 -11 0 4 12 -5 26 -21 15 -16 23 -22 18 -14 -4 8 5 3 21
-12 15 -16 34 -28 41 -28 7 0 21 -11 32 -25 11 -13 22 -21 26 -18 3 3 6 1 6
-5 0 -7 6 -12 14 -12 8 0 17 -7 20 -16 3 -8 10 -12 16 -9 6 3 13 -1 16 -9 3
-9 10 -13 15 -10 5 3 9 1 9 -4 0 -5 14 -15 30 -22 16 -7 30 -16 30 -21 0 -4 9
-11 20 -14 11 -4 41 -22 66 -41 25 -20 43 -30 39 -22 -3 7 1 4 9 -6 9 -11 16
-16 16 -10 0 5 4 5 8 -1 4 -6 24 -19 44 -30 21 -11 38 -23 38 -28 0 -4 5 -5
10 -2 6 3 10 1 10 -6 0 -7 3 -9 7 -6 3 4 12 -1 20 -11 10 -11 12 -12 8 -2 -4
10 -2 9 8 -2 8 -10 17 -15 20 -11 4 3 7 0 7 -7 0 -7 3 -10 7 -7 3 4 18 -3 31
-15 14 -13 22 -16 18 -8 -5 9 -2 8 7 -2 8 -10 17 -15 20 -11 4 3 7 1 7 -6 0
-7 4 -10 9 -6 5 3 16 -1 24 -9 8 -8 17 -12 21 -9 3 4 6 1 6 -6 0 -7 4 -9 10
-6 6 3 10 1 10 -5 0 -6 4 -8 10 -5 6 3 10 1 10 -4 0 -6 9 -11 20 -11 11 0 23
-6 26 -14 3 -8 12 -12 20 -9 8 3 14 0 14 -6 0 -6 9 -11 21 -11 11 0 18 -4 15
-8 -2 -4 5 -9 16 -9 11 -1 26 -10 32 -19 7 -9 18 -14 24 -10 7 4 12 2 12 -4 0
-6 4 -8 10 -5 5 3 10 1 10 -5 0 -6 4 -9 9 -5 5 3 17 -2 25 -11 9 -8 16 -13 16
-9 0 3 10 -1 23 -10 13 -8 27 -12 30 -8 4 3 7 1 7 -6 0 -7 4 -9 10 -6 5 3 10
1 10 -6 0 -7 3 -9 7 -6 3 4 12 2 19 -3 6 -6 22 -13 35 -15 12 -3 26 -10 31
-17 4 -7 8 -10 8 -5 0 4 10 1 23 -8 13 -8 27 -12 30 -8 4 3 7 1 7 -5 0 -7 3
-11 8 -11 4 1 10 0 15 -1 4 -1 10 -3 15 -4 4 -1 17 -7 28 -14 12 -6 24 -8 28
-5 3 3 6 1 6 -6 0 -7 4 -10 9 -6 5 3 12 1 16 -5 4 -6 10 -8 15 -5 4 2 19 -4
33 -15 14 -11 37 -20 51 -20 14 0 26 -5 26 -12 0 -6 3 -8 7 -5 3 4 12 2 20 -4
7 -6 13 -9 13 -6 0 3 12 0 27 -8 15 -8 30 -12 35 -9 4 3 8 0 8 -6 0 -6 4 -9 9
-5 5 3 12 1 16 -5 4 -6 11 -8 16 -5 5 4 9 1 9 -4 0 -6 3 -10 8 -10 4 1 10 0
15 -1 4 -1 12 -4 17 -5 6 -1 11 -3 13 -5 1 -1 9 -3 17 -5 8 -2 32 -10 53 -19
20 -9 37 -13 37 -10 0 4 6 2 13 -3 6 -6 26 -14 42 -18 40 -11 44 -12 53 -15 4
-1 10 -2 15 -1 4 0 7 -4 7 -10 0 -5 5 -7 10 -4 6 4 16 2 23 -3 11 -9 69 -25
82 -23 3 1 18 -5 34 -13 16 -9 31 -12 35 -9 3 4 6 2 6 -3 0 -9 14 -13 58 -16
6 -1 12 -4 12 -8 0 -5 18 -9 58 -12 6 -1 12 -4 12 -8 0 -4 6 -7 13 -8 6 0 22
-3 35 -6 12 -3 32 -9 45 -12 12 -3 27 -6 32 -8 6 -2 24 -6 40 -11 17 -4 34
-10 40 -13 5 -4 16 -7 25 -9 46 -8 56 -11 70 -16 8 -4 27 -9 43 -12 15 -3 39
-7 55 -10 15 -3 34 -8 42 -11 8 -4 24 -8 35 -10 11 -1 31 -6 45 -9 14 -4 33
-7 43 -7 9 1 17 -3 17 -7 0 -5 11 -9 25 -10 47 -3 55 -4 55 -12 0 -4 8 -6 18
-4 9 1 21 0 27 -3 5 -3 16 -7 25 -8 8 -1 26 -5 40 -9 14 -4 34 -8 45 -10 25
-4 62 -12 95 -20 14 -4 36 -8 50 -10 14 -2 25 -4 25 -5 0 -1 16 -3 35 -6 40
-5 75 -12 75 -14 0 -2 33 -9 70 -14 17 -3 30 -5 30 -6 0 -1 11 -3 25 -5 14 -2
36 -6 50 -10 14 -4 35 -7 48 -8 12 -1 22 -3 22 -7 0 -3 15 -6 33 -7 17 -1 46
-4 62 -7 17 -3 44 -8 60 -10 17 -3 46 -7 65 -10 19 -3 51 -8 70 -11 19 -4 46
-8 60 -11 14 -2 41 -6 60 -10 19 -3 47 -6 63 -6 15 0 27 -3 27 -7 0 -4 15 -8
33 -9 43 -3 92 -9 92 -12 0 -1 12 -4 27 -6 16 -2 40 -6 55 -8 16 -2 28 -5 28
-6 0 -1 11 -3 25 -5 14 -1 43 -5 65 -9 130 -23 143 -26 173 -30 15 -2 50 -7
77 -11 28 -3 64 -9 80 -12 17 -3 44 -6 60 -8 43 -4 125 -15 160 -22 17 -3 48
-6 70 -8 22 -1 40 -3 40 -4 0 -1 25 -5 55 -7 30 -3 78 -7 105 -9 28 -3 70 -7
95 -9 25 -2 74 -7 110 -10 36 -4 101 -9 145 -11 44 -3 127 -7 185 -11 137 -8
829 -8 945 1 50 3 126 8 170 10 44 2 82 5 85 6 3 1 23 3 45 5 37 2 58 4 190
19 28 4 66 8 85 10 19 2 58 7 85 10 28 4 64 8 80 10 17 1 30 4 30 5 0 1 16 4
35 6 75 10 85 12 85 14 0 2 14 4 30 5 17 2 46 6 65 10 19 3 47 7 63 8 15 0 27
4 27 7 0 4 6 7 13 8 24 2 82 10 87 12 3 1 10 3 15 5 6 1 12 3 15 4 6 3 26 7
70 15 19 3 46 8 60 11 32 8 72 15 88 17 6 1 12 4 12 8 0 7 9 9 55 12 14 1 25
6 25 11 0 5 7 7 15 4 8 -4 17 -2 20 3 3 5 14 7 25 5 11 -2 20 0 20 5 0 5 9 7
20 5 11 -2 20 -1 20 3 0 7 16 11 58 14 6 1 12 4 12 8 0 4 6 7 13 8 22 2 42 7
55 15 6 5 12 6 12 2 0 -3 14 2 30 10 17 9 35 13 40 10 5 -3 11 -1 15 5 4 6 11
8 16 5 5 -4 9 -2 9 4 0 5 9 8 20 6 11 -2 20 1 20 7 0 6 3 8 7 5 3 -4 12 -2 20
4 7 6 13 9 13 5 0 -3 16 0 35 8 19 8 35 12 35 8 0 -4 4 -1 9 6 4 7 18 14 29
15 12 1 22 5 22 10 0 4 4 6 9 2 5 -3 12 -1 16 5 4 6 11 8 16 5 5 -4 9 -1 9 5
0 7 7 10 15 6 8 -3 15 -1 15 4 0 5 7 7 15 4 8 -4 15 -1 15 6 0 6 4 9 9 5 5 -3
12 -1 16 5 4 6 10 8 15 5 5 -3 11 -1 15 5 4 6 11 8 16 5 5 -4 9 -1 9 5 0 6 5
8 10 5 6 -3 10 -1 10 6 0 7 3 10 6 6 4 -3 21 1 38 10 17 10 37 16 44 15 6 -2
12 2 12 8 0 5 3 9 8 8 4 -1 17 3 30 10 12 7 22 10 22 6 0 -4 8 0 18 9 10 10
22 14 25 10 4 -3 7 -1 7 5 0 7 3 11 8 10 12 -3 82 25 82 34 0 4 9 8 20 8 11 0
20 5 20 11 0 5 5 7 10 4 6 -3 10 -1 10 6 0 7 3 9 7 6 3 -4 15 1 26 10 13 12
17 13 12 4 -5 -8 6 -5 23 8 18 12 32 19 32 16 0 -3 14 3 30 15 17 12 30 18 30
13 0 -4 4 -3 8 2 4 6 25 19 47 30 22 11 42 22 45 25 3 3 25 16 50 29 25 13 54
31 64 40 16 13 18 13 12 1 -4 -9 -2 -8 7 2 8 10 22 18 31 18 9 0 16 4 16 9 0
5 14 14 30 21 17 7 30 17 30 22 0 5 5 6 10 3 6 -3 10 -1 10 6 0 7 3 10 6 6 4
-3 15 4 26 16 11 12 17 16 13 10 -4 -9 -1 -11 9 -7 9 3 14 9 12 13 -2 3 12 16
31 28 19 13 31 17 28 10 -4 -6 3 -1 15 13 12 14 19 18 15 10 -4 -9 0 -7 8 3 9
10 23 20 32 21 10 1 26 13 37 27 11 13 17 17 13 9 -6 -13 -5 -13 7 0 7 9 29
27 48 40 19 13 41 30 48 37 7 7 20 13 28 13 8 0 13 4 10 8 -3 4 11 16 30 27
19 10 34 23 34 28 0 6 3 8 6 4 3 -3 19 9 35 26 16 18 33 32 37 32 7 0 21 12
86 73 16 15 25 20 21 12 -4 -9 -1 -8 8 2 8 10 20 18 26 18 7 0 9 4 6 10 -3 5
1 10 9 10 8 0 18 5 22 12 5 7 2 9 -7 4 -8 -4 -6 -1 5 6 10 7 32 25 48 41 17
15 34 27 40 27 5 0 7 3 5 8 -5 7 18 33 28 32 3 0 24 20 47 44 22 25 45 43 49
40 5 -3 9 0 9 6 0 16 96 111 104 103 3 -4 6 -1 6 6 0 8 19 31 43 53 23 22 35
37 27 33 -8 -4 2 7 23 26 20 19 37 40 37 46 0 7 5 15 12 19 7 5 8 3 3 -6 -5
-9 -4 -11 3 -6 7 4 12 14 12 22 0 8 8 14 17 14 9 0 14 3 10 6 -6 7 13 32 63
82 19 19 28 32 20 28 -8 -4 -6 0 5 9 11 9 19 21 18 26 -2 5 4 9 13 9 8 0 12 5
9 10 -3 6 -1 10 4 10 6 0 11 7 11 15 0 8 9 19 20 25 11 6 20 16 20 23 0 7 12
23 28 37 15 14 21 21 12 15 -15 -10 23 38 50 63 9 8 10 11 2 7 -11 -6 -11 -3
-1 13 7 12 16 19 20 16 4 -2 10 5 14 16 4 11 16 30 28 42 12 11 15 18 7 14 -8
-4 -6 1 5 11 12 10 30 35 40 56 11 20 23 37 28 37 4 0 5 5 2 10 -3 6 -2 10 4
10 5 0 13 10 16 23 4 12 17 30 29 40 11 10 14 15 6 11 -8 -4 -3 6 11 22 42 46
113 171 215 374 75 151 170 366 172 393 1 4 8 20 16 35 23 41 134 361 152 437
1 6 13 48 27 95 22 77 90 359 100 420 3 14 12 63 21 110 8 47 18 101 21 120
27 183 35 246 40 315 4 44 8 91 11 105 10 61 19 306 19 545 0 238 -11 540 -19
554 -2 3 -7 49 -10 101 -4 52 -9 102 -11 110 -2 8 -6 38 -9 65 -5 46 -15 124
-31 230 -5 35 -30 172 -41 230 -2 11 -7 36 -10 55 -4 19 -15 73 -26 120 -11
47 -22 96 -24 110 -3 14 -21 86 -40 160 -20 74 -42 160 -50 190 -16 61 -51
174 -63 205 -5 11 -16 47 -26 80 -44 154 -221 615 -299 780 -18 39 -46 99 -62
135 -129 290 -408 789 -628 1120 -81 123 -273 398 -286 410 -3 3 -39 50 -80
105 -41 55 -77 102 -81 105 -3 3 -30 37 -60 76 -30 39 -75 95 -100 125 -26 30
-77 90 -114 134 -62 74 -143 165 -285 319 -188 205 -560 563 -775 747 -21 19
-46 41 -55 49 -37 36 -358 297 -497 403 -248 190 -554 404 -875 610 -48 31
-86 62 -84 69 1 7 1 10 -1 6 -3 -5 -9 -8 -14 -8 -15 0 -89 52 -89 62 0 5 4 7
8 4 4 -2 14 0 22 5 12 7 11 8 -5 6 -11 -1 -26 -6 -33 -11 -7 -4 -15 -6 -18 -4
-2 3 19 74 47 158 70 214 63 256 -63 361 -35 29 -62 58 -61 63 0 6 11 56 23
111 12 55 21 121 21 146 0 72 -41 135 -111 172 -14 8 -83 44 -155 82 -71 37
-136 73 -143 80 -12 10 -7 36 28 150 23 76 42 154 42 175 0 44 -22 91 -57 118
l-25 20 39 93 c77 188 263 622 326 764 56 125 156 365 229 550 48 121 91 229
97 240 30 66 161 460 203 611 27 98 81 333 91 399 3 22 8 56 11 75 29 179 27
495 -4 635 -79 354 -271 596 -597 754 -96 47 -279 109 -370 127 -22 4 -44 8
-50 10 -29 7 -157 26 -205 30 -30 3 -66 8 -80 11 -28 5 -575 14 -581 9z"/>
<path d="M12662 13715 c4 -4 0 -14 -10 -21 -9 -7 -12 -14 -6 -14 6 0 17 6 23
14 9 11 9 16 -1 22 -7 4 -10 4 -6 -1z"/>
<path d="M12682 13688 c-7 -7 -12 -16 -12 -20 0 -11 28 -10 35 2 4 6 -1 7 -12
3 -16 -6 -16 -5 -4 10 15 20 11 23 -7 5z"/>
<path d="M4360 2756 c0 -2 8 -10 18 -17 15 -13 16 -12 3 4 -13 16 -21 21 -21
13z"/>
<path d="M15739 2263 c-13 -16 -12 -17 4 -4 9 7 17 15 17 17 0 8 -8 3 -21 -13z"/>
</g>
</svg>
